<?xml version="1.0" encoding="utf-8"?>
<!-- Generator: Adobe Illustrator 26.2.1, SVG Export Plug-In . SVG Version: 6.00 Build 0)  -->
<svg version="1.1" id="Layer_1" xmlns:mydata="http://www.w3.org/2000/svg"
	 xmlns="http://www.w3.org/2000/svg" xmlns:xlink="http://www.w3.org/1999/xlink" x="0px" y="0px" viewBox="0 0 735.4 221.7"
	 style="enable-background:new 0 0 735.4 221.7;" xml:space="preserve">
<style type="text/css">
	.st0{fill:#101820;}
	.st1{fill-rule:evenodd;clip-rule:evenodd;fill:#101820;}
</style>
<g>
	<g>
		<g id="element-id-67486">
			<g>
				<path id="element-id-10611" class="st0" d="M247,106.5V47.6h23c2.2,0,4.2,0.4,6.1,1.3s3.6,2,5,3.4c1.4,1.4,2.6,3.1,3.4,5
					c0.8,1.9,1.2,4,1.2,6.1c0,2.4-0.5,4.5-1.4,6.5c-1,2-2.2,3.7-3.9,5.2c2.6,1.5,4.7,3.5,6.3,6.1c1.6,2.6,2.4,5.4,2.4,8.6
					c0,2.4-0.4,4.5-1.3,6.6c-0.9,2-2.1,3.8-3.6,5.3c-1.5,1.5-3.3,2.7-5.3,3.6c-2,0.9-4.2,1.3-6.6,1.3L247,106.5z M253.3,100.3h19.1
					c1.5,0,2.8-0.3,4.2-0.9c1.3-0.6,2.5-1.4,3.4-2.5c1-1,1.8-2.2,2.3-3.6s0.8-2.7,0.8-4.2c0-1.5-0.3-2.8-0.8-4
					c-0.6-1.2-1.3-2.3-2.3-3.2c-1-0.9-2.1-1.6-3.4-2.1c-1.3-0.5-2.7-0.8-4.2-0.8h-19.1V100.3z M253.3,53.9v19h16.9
					c1.3,0,2.6-0.3,3.7-0.8c1.1-0.5,2.1-1.2,3-2c0.8-0.8,1.5-1.8,2-3s0.8-2.4,0.8-3.7c0-1.3-0.3-2.6-0.8-3.7c-0.5-1.1-1.2-2.1-2-3
					c-0.8-0.8-1.8-1.5-3-2s-2.4-0.8-3.7-0.8L253.3,53.9z"/>
				<path id="element-id-33865" class="st0" d="M292.5,106.5V47.6h6.2v58.9H292.5z"/>
				<path id="element-id-35052" class="st0" d="M302.1,106.5V47.6h23c2.2,0,4.2,0.4,6.1,1.3c1.9,0.8,3.6,2,5,3.4
					c1.4,1.4,2.6,3.1,3.4,5c0.8,1.9,1.2,4,1.2,6.1c0,2.4-0.5,4.5-1.4,6.5c-1,2-2.2,3.7-3.9,5.2c2.6,1.5,4.7,3.5,6.3,6.1
					c1.6,2.6,2.4,5.4,2.4,8.6c0,2.4-0.4,4.5-1.3,6.6c-0.9,2-2.1,3.8-3.6,5.3c-1.5,1.5-3.3,2.7-5.3,3.6c-2,0.9-4.2,1.3-6.6,1.3
					L302.1,106.5z M308.3,100.3h19.1c1.5,0,2.8-0.3,4.2-0.9s2.5-1.4,3.4-2.5c1-1,1.8-2.2,2.3-3.6c0.6-1.3,0.8-2.7,0.8-4.2
					c0-1.5-0.3-2.8-0.8-4c-0.6-1.2-1.3-2.3-2.3-3.2c-1-0.9-2.1-1.6-3.4-2.1c-1.3-0.5-2.7-0.8-4.2-0.8h-19.1V100.3z M308.3,53.9v19
					h16.9c1.3,0,2.6-0.3,3.7-0.8c1.1-0.5,2.1-1.2,3-2s1.5-1.8,2-3c0.5-1.1,0.8-2.4,0.8-3.7c0-1.3-0.3-2.6-0.8-3.7
					c-0.5-1.1-1.2-2.1-2-3c-0.8-0.8-1.8-1.5-3-2c-1.1-0.5-2.4-0.8-3.7-0.8L308.3,53.9z"/>
				<path id="element-id-98220" class="st0" d="M347.6,106.5V47.6h6.2v52.6h29v6.2L347.6,106.5z"/>
				<path id="element-id-8652" class="st0" d="M386.2,106.5V47.6h6.2v58.9H386.2z"/>
				<path id="element-id-53522" class="st0" d="M444.3,76.8c0-3.2-0.4-6.2-1.3-9.1c-0.9-2.9-2.2-5.4-4-7.5c-1.8-2.2-4-3.9-6.6-5.2
					c-2.6-1.3-5.7-1.9-9.3-1.9c-3.5,0-6.5,0.6-9.1,1.9c-2.6,1.3-4.8,3-6.6,5.1c-1.8,2.2-3.1,4.7-4,7.6c-0.9,2.9-1.3,5.9-1.3,9.1
					c0,3.2,0.4,6.2,1.3,9.1c0.9,2.9,2.2,5.4,4,7.6c1.8,2.2,4,3.9,6.6,5.2c2.6,1.3,5.6,1.9,9.1,1.9c3.5,0,6.6-0.6,9.3-1.9
					s4.8-3,6.6-5.2c1.8-2.2,3.1-4.7,4-7.6C443.9,83.1,444.3,80.1,444.3,76.8L444.3,76.8z M450.6,76.7c0,3.9-0.6,7.7-1.7,11.4
					c-1.1,3.6-2.9,6.9-5.2,9.6c-2.3,2.8-5.2,5-8.6,6.7s-7.4,2.5-12,2.5c-4.5,0-8.5-0.8-11.9-2.5s-6.2-3.9-8.5-6.7
					c-2.3-2.8-4-6-5.2-9.6c-1.1-3.6-1.7-7.4-1.7-11.4c0-3.9,0.6-7.7,1.7-11.3c1.1-3.6,2.9-6.8,5.2-9.5c2.3-2.7,5.1-4.9,8.5-6.6
					c3.4-1.7,7.4-2.5,11.9-2.5s8.5,0.8,12,2.5c3.4,1.7,6.3,3.9,8.6,6.6s4,5.9,5.2,9.5C450.1,69.1,450.6,72.8,450.6,76.7z"/>
				<path id="element-id-67769" class="st0" d="M469.2,53.9v52.6h-6.2V53.9h-14.8v-6.2h35.5v6.2H469.2z"/>
				<path id="element-id-6287" class="st0" d="M522.3,106.5V79h-29.1v27.5H487V47.6h6.2v25.1h29.1V47.6h6.2v58.9H522.3z"/>
				<path id="element-id-6364" class="st0" d="M531.9,106.5V47.6H567v6.2h-28.8v18.9h26.2V79h-26.2v21.3h29.1v6.2L531.9,106.5z
					 M546.1,40.1l7.8-9.5h5.8l-7.9,9.5H546.1z"/>
				<path id="element-id-98738" class="st0" d="M625.4,76.7c0,3.3-0.4,6.5-1.2,9.6s-2,5.9-3.6,8.5c-1.6,2.6-3.6,4.8-6,6.7
					c-2.4,1.9-5.2,3.4-8.4,4.2l7.2,9.2h-6.9l-6.2-8.2c-0.4,0.1-0.9,0.1-1.3,0.1c-0.4,0-0.8,0-1.3,0c-4.5,0-8.5-0.8-11.9-2.5
					s-6.2-3.9-8.5-6.7c-2.3-2.8-4-6-5.2-9.6s-1.7-7.4-1.7-11.4c0-3.9,0.6-7.7,1.7-11.3c1.1-3.6,2.9-6.8,5.2-9.5
					c2.3-2.7,5.1-4.9,8.5-6.6s7.4-2.5,11.9-2.5c4.5,0,8.5,0.8,12,2.5s6.3,3.9,8.6,6.6c2.3,2.7,4,5.9,5.2,9.5
					C624.8,69.1,625.4,72.8,625.4,76.7L625.4,76.7z M619.1,76.8c0-3.2-0.4-6.2-1.3-9.1c-0.9-2.9-2.2-5.4-4-7.5
					c-1.8-2.2-4-3.9-6.6-5.2c-2.6-1.3-5.7-1.9-9.3-1.9c-3.5,0-6.5,0.6-9.1,1.9s-4.8,3-6.6,5.1c-1.8,2.2-3.1,4.7-4,7.6
					c-0.9,2.9-1.3,5.9-1.3,9.1c0,3.2,0.4,6.2,1.3,9.1s2.2,5.4,4,7.6c1.8,2.2,4,3.9,6.6,5.2s5.6,1.9,9.1,1.9c3.5,0,6.6-0.6,9.3-1.9
					c2.6-1.3,4.8-3,6.6-5.2c1.8-2.2,3.1-4.7,4-7.6C618.7,83.1,619.1,80.1,619.1,76.8L619.1,76.8z"/>
				<path id="element-id-19500" class="st0" d="M652.2,107.1c-1.3,0-2.7-0.1-4-0.3c-2.7-0.3-5.3-1-7.6-2.1c-2.3-1-4.3-2.4-6.1-4.1
					c-1.7-1.7-3.1-3.7-4.1-5.9c-1-2.3-1.6-4.8-1.7-7.6v-1V47.6h6.2v38.6c0,2.4,0.4,4.5,1.2,6.3c0.8,1.8,1.9,3.2,3.2,4.4
					c1.4,1.2,3,2.1,4.8,2.7c1.9,0.6,3.8,1,5.9,1.2c0.3,0.1,0.5,0.1,0.8,0.1c0.2,0,0.5,0,0.8,0h0.6h0.2h0.6c0.3,0,0.5,0,0.7,0
					c0.2,0,0.4,0,0.7-0.1c2.1-0.2,4-0.6,5.9-1.2c1.9-0.6,3.5-1.5,4.9-2.7c1.4-1.2,2.5-2.6,3.3-4.4c0.8-1.8,1.2-3.9,1.2-6.3V47.6h6.2
					v38.5v1c-0.1,2.8-0.7,5.3-1.7,7.6c-1,2.3-2.4,4.2-4.1,5.9c-1.7,1.7-3.8,3-6.1,4.1c-2.3,1-4.9,1.7-7.6,2.1l-3.1,0.3h-0.8
					L652.2,107.1z"/>
				<path id="element-id-49102" class="st0" d="M679.2,106.5V47.6h35.1v6.2h-28.8v18.9h26.2V79h-26.2v21.3h29.1v6.2L679.2,106.5z"/>
			</g>
			<g>
				<path id="element-id-9242" class="st0" d="M247,195.3v-58.9h35.1v6.2h-28.8v18.9h26.2v6.2h-26.2v21.3h29.1v6.2L247,195.3z"/>
				<path id="element-id-91244" class="st0" d="M293.8,195.3h-8.1l20.6-29.7l-20.3-29.2h8.1l16.1,23.5l16.1-23.5h8.1l-20.4,29.2
					l20.7,29.7h-8.2l-16.4-24L293.8,195.3z"/>
				<path id="element-id-88359" class="st0" d="M344.3,170.2v25.1h-6.2v-58.9h22c2.3,0,4.5,0.4,6.5,1.3c2,0.9,3.8,2.1,5.3,3.6
					c1.5,1.5,2.7,3.3,3.6,5.3c0.9,2,1.3,4.2,1.3,6.6c0,2.4-0.4,4.6-1.3,6.6c-0.9,2-2.1,3.8-3.6,5.3c-1.5,1.5-3.3,2.7-5.3,3.6
					c-2,0.9-4.2,1.3-6.5,1.3L344.3,170.2z M344.3,164h15.7c1.5,0,2.8-0.3,4.1-0.8c1.3-0.6,2.4-1.3,3.4-2.3c1-1,1.7-2.1,2.3-3.4
					c0.6-1.3,0.8-2.7,0.8-4.1c0-1.5-0.3-2.8-0.8-4.1c-0.6-1.3-1.3-2.4-2.3-3.4c-1-1-2.1-1.7-3.4-2.3c-1.3-0.6-2.7-0.9-4.1-0.9h-15.7
					V164z"/>
				<path id="element-id-10615" class="st0" d="M400.4,170.2h-13.9v25.1h-6.2v-58.9h22c2.3,0,4.5,0.4,6.5,1.3c2,0.9,3.8,2.1,5.3,3.6
					c1.5,1.5,2.7,3.3,3.6,5.3c0.9,2,1.3,4.2,1.3,6.6c0,1.9-0.3,3.6-0.9,5.3c-0.6,1.7-1.4,3.3-2.4,4.7c-1,1.4-2.2,2.6-3.7,3.7
					c-1.4,1-3,1.8-4.7,2.4l13.7,25.9h-7L400.4,170.2z M386.5,164h15.7c1.5,0,2.8-0.3,4.1-0.8c1.3-0.6,2.4-1.3,3.4-2.3
					c1-1,1.7-2.1,2.3-3.4c0.6-1.3,0.8-2.7,0.8-4.1c0-1.5-0.3-2.8-0.8-4.1c-0.6-1.3-1.3-2.4-2.3-3.4c-1-1-2.1-1.7-3.4-2.3
					c-1.3-0.6-2.7-0.9-4.1-0.9h-15.7V164z"/>
				<path id="element-id-17463" class="st0" d="M424.5,195.3v-58.9h35.1v6.2h-28.8v18.9H457v6.2h-26.2v21.3h29.1v6.2L424.5,195.3z"
					/>
				<path id="element-id-16934" class="st0" d="M498.2,149c-1.8-2.4-3.8-4-6.1-5c-2.2-1-4.9-1.5-7.9-1.5c-4,0-7.1,0.8-9.3,2.5
					c-2.2,1.7-3.3,3.7-3.3,6.1c0,1.5,0.5,2.7,1.4,3.9c0.9,1.1,2.1,2.1,3.6,3c1.5,0.9,3.1,1.6,4.8,2.3c1.8,0.7,3.5,1.3,5.1,1.9
					c1.6,0.5,3.4,1.2,5.4,2.1c2,0.9,4,2,5.8,3.4c1.8,1.3,3.4,3,4.6,4.9c1.2,1.9,1.9,4.1,1.9,6.7c0,2.7-0.5,5.1-1.6,7.1
					s-2.5,3.8-4.3,5.2c-1.9,1.4-4,2.4-6.6,3.2s-5.2,1.1-8.2,1.1c-4.2,0-8-0.8-11.5-2.4c-3.5-1.6-6.8-4.1-9.8-7.6l5-4.2
					c2,2.7,4.3,4.7,7.1,5.9c2.7,1.2,5.9,1.9,9.4,1.9c2.1,0,4-0.2,5.7-0.7c1.7-0.4,3.2-1.1,4.4-1.9c1.2-0.8,2.2-1.8,2.9-2.9
					c0.7-1.1,1.1-2.3,1.1-3.6c0-1.7-0.5-3.3-1.4-4.6c-1-1.3-2.2-2.5-3.6-3.4c-1.5-1-3.1-1.8-5-2.5c-1.9-0.7-3.6-1.3-5.4-1.9
					c-2.1-0.7-4.1-1.5-6.2-2.2s-3.9-1.7-5.6-2.9c-1.7-1.1-3-2.6-4-4.4c-1-1.8-1.5-4.1-1.5-6.9c0-2,0.4-4,1.1-5.8
					c0.7-1.9,1.8-3.5,3.3-4.9c1.5-1.4,3.5-2.6,5.9-3.4c2.4-0.8,5.3-1.3,8.7-1.3c4,0,7.7,0.6,10.8,1.9s6.2,3.6,9.1,7.1l-5.5,4.3
					L498.2,149z"/>
				<path id="element-id-27247" class="st0" d="M543.5,149c-1.8-2.4-3.8-4-6.1-5c-2.2-1-4.9-1.5-7.9-1.5c-4,0-7.1,0.8-9.3,2.5
					s-3.3,3.7-3.3,6.1c0,1.5,0.5,2.7,1.4,3.9c0.9,1.1,2.1,2.1,3.6,3c1.5,0.9,3.1,1.6,4.8,2.3c1.8,0.7,3.5,1.3,5.1,1.9
					c1.6,0.5,3.4,1.2,5.4,2.1c2,0.9,4,2,5.8,3.4c1.8,1.3,3.4,3,4.6,4.9c1.2,1.9,1.9,4.1,1.9,6.7c0,2.7-0.5,5.1-1.6,7.1
					s-2.5,3.8-4.3,5.2s-4,2.4-6.6,3.2s-5.2,1.1-8.2,1.1c-4.2,0-8-0.8-11.5-2.4c-3.5-1.6-6.8-4.1-9.8-7.6l5-4.2
					c2,2.7,4.3,4.7,7.1,5.9c2.7,1.2,5.9,1.9,9.4,1.9c2.1,0,4-0.2,5.7-0.7c1.7-0.4,3.2-1.1,4.4-1.9c1.2-0.8,2.2-1.8,2.9-2.9
					c0.7-1.1,1.1-2.3,1.1-3.6c0-1.7-0.5-3.3-1.4-4.6c-1-1.3-2.2-2.5-3.6-3.4c-1.5-1-3.1-1.8-5-2.5c-1.9-0.7-3.6-1.3-5.4-1.9
					c-2.1-0.7-4.1-1.5-6.2-2.2s-3.9-1.7-5.6-2.9c-1.7-1.1-3-2.6-4-4.4c-1-1.8-1.5-4.1-1.5-6.9c0-2,0.4-4,1.1-5.8
					c0.7-1.9,1.8-3.5,3.3-4.9c1.5-1.4,3.5-2.6,5.9-3.4c2.4-0.8,5.3-1.3,8.7-1.3c4,0,7.7,0.6,10.8,1.9c3.2,1.3,6.2,3.6,9.1,7.1
					l-5.5,4.3L543.5,149z"/>
			</g>
		</g>
		<g id="element-id-59725">
			<path id="element-id-44747" class="st1" d="M116.5,103.4l41.1-44.1l-0.1-0.1l-41-44.1L116.5,103.4z M105.3,45.4l2.1,60.3
				L45.1,43.2l60.2,2.2L105.3,45.4z M184.8,106l-60.3,2.1L187,45.7l-2.2,60.2L184.8,106z M102.7,113.6L58.6,72.5l-0.1,0.1l-44.1,41
				L102.7,113.6z M122.3,115c0,1.9-0.7,3.5-2,4.9c-1.4,1.4-3,2-4.9,2c-1.9,0-3.5-0.7-4.9-2c-1.4-1.4-2-3-2-4.9s0.7-3.5,2-4.9
				c1.4-1.4,3-2,4.9-2c1.9,0,3.5,0.7,4.9,2C121.7,111.5,122.3,113.1,122.3,115z M126.8,117.2l44.1,41.1l0.1-0.1l44.1-41H126.8z
				 M44.7,124.8l60.3-2.1l-62.4,62.4l2.2-60.2L44.7,124.8z M124.2,185.5l-2.1-60.3l62.4,62.4l-60.2-2.2L124.2,185.5z M113,127.5
				l-41.1,44.1l0.1,0.1l41,44.1V127.5z"/>
		</g>
	</g>
</g>
<rect x="292.8" y="48.1" width="5.8" height="59.5"/>
<rect x="386.8" y="48.1" width="5.8" height="59.5"/>
</svg>
